name C:\Users\u0101727\Documents\MyRepositories\upper-imu-dc\Results\main_tracking\Case_40\FLX01_angularVelocities_groundFrame.mot
datacolumns 4
datarows 117
range 2.01000000 3.17000000
endheader 
time	radius_imu_x	radius_imu_y	radius_imu_z	
          2.01000000	         -0.99252920	          0.45770762	          0.97067768	
          2.02000000	         -1.03438247	          0.30587108	          0.96127088	
          2.03000000	         -1.06639503	          0.17245772	          0.95107018	
          2.04000000	         -1.08662949	          0.05892661	          0.93959639	
          2.05000000	         -1.09119780	         -0.03252595	          0.92702671	
          2.06000000	         -1.07495903	         -0.09907043	          0.91432113	
          2.07000000	         -1.03315599	         -0.13794932	          0.90303763	
          2.08000000	         -0.96344274	         -0.14759787	          0.89490374	
          2.09000000	         -0.86765182	         -0.12884681	          0.89127449	
          2.10000000	         -0.75272444	         -0.08582208	          0.89262164	
          2.11000000	         -0.63034809	         -0.02615850	          0.89819251	
          2.12000000	         -0.51510636	          0.03975241	          0.90597318	
          2.13000000	         -0.42139067	          0.10051588	          0.91307114	
          2.14000000	         -0.35989707	          0.14612334	          0.91650981	
          2.15000000	         -0.33510611	          0.17009303	          0.91416203	
          2.16000000	         -0.34497206	          0.17036941	          0.90537998	
          2.17000000	         -0.38277419	          0.14870071	          0.89104584	
          2.18000000	         -0.43986446	          0.10910768	          0.87311383	
          2.19000000	         -0.50788441	          0.05637770	          0.85394563	
          2.20000000	         -0.57965140	         -0.00472068	          0.83577107	
          2.21000000	         -0.64882531	         -0.06938319	          0.82044726	
          2.22000000	         -0.70926514	         -0.13241633	          0.80943197	
          2.23000000	         -0.75506284	         -0.18833729	          0.80376149	
          2.24000000	         -0.78146106	         -0.23218124	          0.80394091	
          2.25000000	         -0.78606971	         -0.26063994	          0.80981729	
          2.26000000	         -0.76971510	         -0.27301647	          0.82052167	
          2.27000000	         -0.73659952	         -0.27168559	          0.83450522	
          2.28000000	         -0.69371980	         -0.26192296	          0.84967565	
          2.29000000	         -0.64965346	         -0.25108646	          0.86363938	
          2.30000000	         -0.61295441	         -0.24727344	          0.87403304	
          2.31000000	         -0.59044426	         -0.25766122	          0.87890945	
          2.32000000	         -0.58568821	         -0.28679201	          0.87712245	
          2.33000000	         -0.59806196	         -0.33523824	          0.86860094	
          2.34000000	         -0.62287380	         -0.39922269	          0.85436848	
          2.35000000	         -0.65264123	         -0.47147253	          0.83625677	
          2.36000000	         -0.67900279	         -0.54294677	          0.81643801	
          2.37000000	         -0.69454017	         -0.60475352	          0.79697302	
          2.38000000	         -0.69411065	         -0.64979240	          0.77948048	
          2.39000000	         -0.67556607	         -0.67388848	          0.76494246	
          2.40000000	         -0.63978471	         -0.67621795	          0.75364999	
          2.41000000	         -0.59009902	         -0.65900298	          0.74527103	
          2.42000000	         -0.53143948	         -0.62676462	          0.73897803	
          2.43000000	         -0.46951512	         -0.58548952	          0.73358046	
          2.44000000	         -0.41014165	         -0.54186206	          0.72766289	
          2.45000000	         -0.35866184	         -0.50251510	          0.71976820	
          2.46000000	         -0.31936949	         -0.47319537	          0.70865905	
          2.47000000	         -0.29491568	         -0.45782509	          0.69363930	
          2.48000000	         -0.28581990	         -0.45764652	          0.67484480	
          2.49000000	         -0.29034360	         -0.47084085	          0.65336381	
          2.50000000	         -0.30490834	         -0.49294245	          0.63108577	
          2.51000000	         -0.32492790	         -0.51794132	          0.61031028	
          2.52000000	         -0.34570930	         -0.53961156	          0.59326093	
          2.53000000	         -0.36317886	         -0.55266529	          0.58164789	
          2.54000000	         -0.37437335	         -0.55355880	          0.57636892	
          2.55000000	         -0.37768867	         -0.54088218	          0.57739705	
          2.56000000	         -0.37288381	         -0.51532670	          0.58385725	
          2.57000000	         -0.36088863	         -0.47933701	          0.59423578	
          2.58000000	         -0.34351002	         -0.43662383	          0.60664078	
          2.59000000	         -0.32311002	         -0.39165057	          0.61906519	
          2.60000000	         -0.30227657	         -0.34909040	          0.62965096	
          2.61000000	         -0.28349234	         -0.31322950	          0.63694931	
          2.62000000	         -0.26882110	         -0.28736592	          0.64012672	
          2.63000000	         -0.25964071	         -0.27331146	          0.63905314	
          2.64000000	         -0.25647653	         -0.27113400	          0.63424346	
          2.65000000	         -0.25900554	         -0.27926673	          0.62667348	
          2.66000000	         -0.26625086	         -0.29500093	          0.61752778	
          2.67000000	         -0.27688439	         -0.31520271	          0.60794781	
          2.68000000	         -0.28948190	         -0.33695342	          0.59884750	
          2.69000000	         -0.30261763	         -0.35784960	          0.59084726	
          2.70000000	         -0.31484220	         -0.37595636	          0.58432653	
          2.71000000	         -0.32470908	         -0.38967971	          0.57952988	
          2.72000000	         -0.33096760	         -0.39784130	          0.57663781	
          2.73000000	         -0.33286720	         -0.39998553	          0.57575786	
          2.74000000	         -0.33037973	         -0.39665607	          0.57686978	
          2.75000000	         -0.32416217	         -0.38932189	          0.57979544	
          2.76000000	         -0.31525009	         -0.37988479	          0.58422449	
          2.77000000	         -0.30465839	         -0.37002876	          0.58977003	
          2.78000000	         -0.29311172	         -0.36077509	          0.59601272	
          2.79000000	         -0.28101042	         -0.35245385	          0.60250519	
          2.80000000	         -0.26856713	         -0.34500100	          0.60875181	
          2.81000000	         -0.25596014	         -0.33828717	          0.61421145	
          2.82000000	         -0.24338943	         -0.33225414	          0.61834393	
          2.83000000	         -0.23101971	         -0.32681734	          0.62069281	
          2.84000000	         -0.21889651	         -0.32170919	          0.62096615	
          2.85000000	         -0.20695285	         -0.31653339	          0.61906099	
          2.86000000	         -0.19513721	         -0.31110353	          0.61501684	
          2.87000000	         -0.18357284	         -0.30584588	          0.60893642	
          2.88000000	         -0.17261140	         -0.30191047	          0.60093714	
          2.89000000	         -0.16271326	         -0.30079024	          0.59117492	
          2.90000000	         -0.15421441	         -0.30358671	          0.57992384	
          2.91000000	         -0.14711552	         -0.31030813	          0.56764348	
          2.92000000	         -0.14100280	         -0.31957675	          0.55495695	
          2.93000000	         -0.13512304	         -0.32889290	          0.54251108	
          2.94000000	         -0.12855526	         -0.33530975	          0.53076970	
          2.95000000	         -0.12039720	         -0.33619657	          0.51984449	
          2.96000000	         -0.10992467	         -0.32981868	          0.50945113	
          2.97000000	         -0.09674169	         -0.31568157	          0.49899899	
          2.98000000	         -0.08094927	         -0.29475169	          0.48774187	
          2.99000000	         -0.06328395	         -0.26955212	          0.47492241	
          3.00000000	         -0.04509175	         -0.24386590	          0.45991874	
          3.01000000	         -0.02804466	         -0.22182444	          0.44241990	
          3.02000000	         -0.01367622	         -0.20661904	          0.42257982	
          3.03000000	         -0.00294585	         -0.19945478	          0.40104817	
          3.04000000	          0.00398615	         -0.19923960	          0.37882969	
          3.05000000	          0.00771732	         -0.20304773	          0.35702936	
          3.06000000	          0.00934163	         -0.20707327	          0.33659334	
          3.07000000	          0.01006822	         -0.20774105	          0.31812188	
          3.08000000	          0.01084889	         -0.20272053	          0.30176429	
          3.09000000	          0.01212960	         -0.19166202	          0.28717661	
          3.10000000	          0.01379487	         -0.17646626	          0.27354974	
          3.11000000	          0.01531986	         -0.16086866	          0.25975212	
          3.12000000	          0.01607381	         -0.14931193	          0.24460129	
          3.13000000	          0.01564639	         -0.14547054	          0.22719620	
          3.14000000	          0.01405533	         -0.15102369	          0.20719384	
          3.15000000	          0.01175147	         -0.16517895	          0.18492925	
          3.16000000	          0.00942803	         -0.18513885	          0.16132671	
          3.17000000	          0.00773558	         -0.20725225	          0.13763153	
